<svg xmlns="http://www.w3.org/2000/svg" width="750" height="1050" viewBox="0 0 750 1050" role="img" aria-labelledby="title desc">
<title id="title">Poison Darts — Traps card</title><desc id="desc">On a failed save, take 1d4 piercing damage and make a DC 13 Constitution save, taking 2d10 poison damage on a failure or half on a success.</desc>
<defs><linearGradient id="bg" x1="0" y1="0" x2="1" y2="1"><stop stop-color="#17120a"/><stop offset="1" stop-color="#02070b"/></linearGradient><pattern id="grain" width="32" height="32" patternUnits="userSpaceOnUse"><path d="M0 32L32 0M-8 8L8-8M24 40L40 24" stroke="#ffb703" opacity=".055" stroke-width="2"/></pattern></defs>
<rect width="750" height="1050" rx="34" fill="url(#bg)"/><rect width="750" height="1050" rx="34" fill="url(#grain)"/><rect x="20" y="20" width="710" height="1010" rx="26" fill="none" stroke="#ffb703" stroke-width="5"/><rect x="35" y="35" width="680" height="980" rx="20" fill="none" stroke="#ef476f" stroke-width="2" opacity=".75"/>
<text x="54" y="66" fill="#ef476f" font-family="system-ui,sans-serif" font-size="20" font-weight="800" letter-spacing="3">TRAPS • TRAPS</text>
<text y="100" fill="#f7fbff" font-family="Georgia,serif" font-size="44" font-weight="800"><tspan x="54" dy="0">Poison Darts</tspan></text>
<text y="245" fill="#a9c5d2" font-family="system-ui,sans-serif" font-size="22"><tspan x="54" dy="0">Mechanical trap • 5E-compatible</tspan></text>
<g transform="translate(0,125)"><path d="M375 165L555 485H195z" fill="none" stroke="#ffb703" stroke-width="18"/><path d="M375 270v105" stroke="#ffb703" stroke-width="26" stroke-linecap="round"/><circle cx="375" cy="430" r="14" fill="#ffb703"/></g>
<rect x="48" y="602" width="654" height="198" rx="20" fill="#02070b" opacity=".8" stroke="#ffb703" stroke-width="2"/>
<text y="640" fill="#edf7fb" font-family="system-ui,sans-serif" font-size="25"><tspan x="62" dy="0">On a failed save, take 1d4 piercing damage</tspan><tspan x="62" dy="34">and make a DC 13 Constitution save, taking</tspan><tspan x="62" dy="34">2d10 poison damage on a failure or half on a</tspan><tspan x="62" dy="34">success.</tspan></text>
<text y="804" fill="#ef476f" font-family="system-ui,sans-serif" font-size="20"><tspan x="62" dy="0">Notice DC 15 • Disable DC 15 • Dexterity save DC</tspan><tspan x="62" dy="28">15</tspan></text>
<text x="54" y="1000" fill="#7994a0" font-family="system-ui,sans-serif" font-size="18">Killer In The Keep • trap-deck-poison-darts-trap-card</text>
</svg>