<svg xmlns="http://www.w3.org/2000/svg" width="750" height="1050" viewBox="0 0 750 1050" role="img" aria-labelledby="title desc">
<title id="title">Mace — Evidence card</title><desc id="desc">A possible weapon named by the sealed solution. This evidence card is separate from equipable Armory cards.</desc>
<defs><linearGradient id="bg" x1="0" y1="0" x2="1" y2="1"><stop stop-color="#071a23"/><stop offset="1" stop-color="#02070b"/></linearGradient><pattern id="grain" width="32" height="32" patternUnits="userSpaceOnUse"><path d="M0 32L32 0M-8 8L8-8M24 40L40 24" stroke="#00ffff" opacity=".055" stroke-width="2"/></pattern></defs>
<rect width="750" height="1050" rx="34" fill="url(#bg)"/><rect width="750" height="1050" rx="34" fill="url(#grain)"/><rect x="20" y="20" width="710" height="1010" rx="26" fill="none" stroke="#00ffff" stroke-width="5"/><rect x="35" y="35" width="680" height="980" rx="20" fill="none" stroke="#ca6309" stroke-width="2" opacity=".75"/>
<text x="54" y="66" fill="#ca6309" font-family="system-ui,sans-serif" font-size="20" font-weight="800" letter-spacing="3">EVIDENCE • MURDER WEAPON</text>
<text y="100" fill="#f7fbff" font-family="Georgia,serif" font-size="44" font-weight="800"><tspan x="54" dy="0">Mace</tspan></text>
<text y="245" fill="#a9c5d2" font-family="system-ui,sans-serif" font-size="22"><tspan x="54" dy="0">Murder-weapon evidence • deduction only</tspan></text>
<g transform="translate(0,125)"><path d="M250 445L472 223l28 28-222 222z" fill="#00ffff"/><path d="M457 208l34-34 85 85-34 34z" fill="none" stroke="#00ffff" stroke-width="16"/><path d="M232 430l88 88" stroke="#00ffff" stroke-width="22" stroke-linecap="round"/></g>
<rect x="48" y="602" width="654" height="170" rx="20" fill="#02070b" opacity=".8" stroke="#00ffff" stroke-width="2"/>
<text y="640" fill="#edf7fb" font-family="system-ui,sans-serif" font-size="25"><tspan x="62" dy="0">A possible weapon named by the sealed</tspan><tspan x="62" dy="34">solution. This evidence card is separate</tspan><tspan x="62" dy="34">from equipable Armory cards.</tspan></text>
<text y="770" fill="#ca6309" font-family="system-ui,sans-serif" font-size="20"><tspan x="62" dy="0">Reveal only when the evidence rules require it.</tspan></text>
<text x="54" y="1000" fill="#7994a0" font-family="system-ui,sans-serif" font-size="18">Killer In The Keep • evidence-weapon-mace</text>
</svg>