<svg xmlns="http://www.w3.org/2000/svg" width="750" height="1050" viewBox="0 0 750 1050" role="img" aria-labelledby="title desc">
<title id="title">Potion of Heroism — Treasure card</title><desc id="desc">Gain 10 Temporary HP and the benefit of Bless for 1 hour without Concentration.</desc>
<defs><linearGradient id="bg" x1="0" y1="0" x2="1" y2="1"><stop stop-color="#111827"/><stop offset="1" stop-color="#02070b"/></linearGradient><pattern id="grain" width="32" height="32" patternUnits="userSpaceOnUse"><path d="M0 32L32 0M-8 8L8-8M24 40L40 24" stroke="#ffd166" opacity=".055" stroke-width="2"/></pattern></defs>
<rect width="750" height="1050" rx="34" fill="url(#bg)"/><rect width="750" height="1050" rx="34" fill="url(#grain)"/><rect x="20" y="20" width="710" height="1010" rx="26" fill="none" stroke="#ffd166" stroke-width="5"/><rect x="35" y="35" width="680" height="980" rx="20" fill="none" stroke="#00ffff" stroke-width="2" opacity=".75"/>
<text x="54" y="66" fill="#00ffff" font-family="system-ui,sans-serif" font-size="20" font-weight="800" letter-spacing="3">TREASURE • TREASURE</text>
<text y="100" fill="#f7fbff" font-family="Georgia,serif" font-size="44" font-weight="800"><tspan x="54" dy="0">Potion of Heroism</tspan></text>
<text y="245" fill="#a9c5d2" font-family="system-ui,sans-serif" font-size="22"><tspan x="54" dy="0">Rare Potion • Magic</tspan></text>
<g transform="translate(0,125)"><path d="M235 300h280v175H235z" fill="none" stroke="#ffd166" stroke-width="16"/><path d="M245 300c18-100 242-100 260 0" fill="none" stroke="#ffd166" stroke-width="16"/><rect x="344" y="350" width="62" height="72" rx="12" fill="#ffd166"/><path d="M375 350v72" stroke="#111827" stroke-width="12"/></g>
<rect x="48" y="602" width="654" height="170" rx="20" fill="#02070b" opacity=".8" stroke="#ffd166" stroke-width="2"/>
<text y="640" fill="#edf7fb" font-family="system-ui,sans-serif" font-size="25"><tspan x="62" dy="0">Gain 10 Temporary HP and the benefit of</tspan><tspan x="62" dy="34">Bless for 1 hour without Concentration.</tspan></text>
<text y="736" fill="#00ffff" font-family="system-ui,sans-serif" font-size="20"><tspan x="62" dy="0">No attunement. Consumable.</tspan></text>
<text x="54" y="1000" fill="#7994a0" font-family="system-ui,sans-serif" font-size="18">Killer In The Keep • treasure-deck-potion-of-heroism</text>
</svg>